<svg width="398" height="398" viewBox="0 0 398 398" fill="none" xmlns="http://www.w3.org/2000/svg">
<circle cx="198.89" cy="2" r="2" fill="#0D0D0D"/>
<circle cx="216.549" cy="2.79232" r="2" transform="rotate(5.14286 216.549 2.79232)" fill="#0D0D0D"/>
<circle cx="234.066" cy="5.16677" r="2" transform="rotate(10.2857 234.066 5.16677)" fill="#0D0D0D"/>
<circle cx="251.299" cy="9.10062" r="2" transform="rotate(15.4286 251.299 9.10062)" fill="#0D0D0D"/>
<circle cx="268.11" cy="14.5615" r="2" transform="rotate(20.5714 268.11 14.5615)" fill="#0D0D0D"/>
<circle cx="284.365" cy="21.5095" r="2" transform="rotate(25.7143 284.365 21.5095)" fill="#0D0D0D"/>
<circle cx="299.931" cy="29.8853" r="2" transform="rotate(30.8571 299.931 29.8853)" fill="#0D0D0D"/>
<circle cx="314.684" cy="39.6237" r="2" transform="rotate(36 314.684 39.6237)" fill="#0D0D0D"/>
<circle cx="328.504" cy="50.6443" r="2" transform="rotate(41.1429 328.504 50.6443)" fill="#0D0D0D"/>
<circle cx="341.28" cy="62.8609" r="2" transform="rotate(46.2857 341.28 62.8609)" fill="#0D0D0D"/>
<circle cx="352.91" cy="76.172" r="2" transform="rotate(51.4286 352.91 76.172)" fill="#0D0D0D"/>
<circle cx="363.3" cy="90.4741" r="2" transform="rotate(56.5714 363.3 90.4741)" fill="#0D0D0D"/>
<circle cx="372.367" cy="105.648" r="2" transform="rotate(61.7143 372.367 105.648)" fill="#0D0D0D"/>
<circle cx="380.037" cy="121.574" r="2" transform="rotate(66.8571 380.037 121.574)" fill="#0D0D0D"/>
<circle cx="386.248" cy="138.124" r="2" transform="rotate(72 386.248 138.124)" fill="#0D0D0D"/>
<circle cx="390.95" cy="155.164" r="2" transform="rotate(77.1429 390.95 155.164)" fill="#0D0D0D"/>
<circle cx="394.107" cy="172.557" r="2" transform="rotate(82.2857 394.107 172.557)" fill="#0D0D0D"/>
<circle cx="395.691" cy="190.162" r="2" transform="rotate(87.4286 395.691 190.162)" fill="#0D0D0D"/>
<circle cx="395.692" cy="207.838" r="2" transform="rotate(92.5714 395.692 207.838)" fill="#0D0D0D"/>
<circle cx="394.107" cy="225.444" r="2" transform="rotate(97.7143 394.107 225.444)" fill="#0D0D0D"/>
<circle cx="390.951" cy="242.837" r="2" transform="rotate(102.857 390.951 242.837)" fill="#0D0D0D"/>
<circle cx="386.247" cy="259.876" r="2" transform="rotate(108 386.247 259.876)" fill="#0D0D0D"/>
<circle cx="380.037" cy="276.426" r="2" transform="rotate(113.143 380.037 276.426)" fill="#0D0D0D"/>
<circle cx="372.367" cy="292.353" r="2" transform="rotate(118.286 372.367 292.353)" fill="#0D0D0D"/>
<circle cx="363.3" cy="307.526" r="2" transform="rotate(123.429 363.3 307.526)" fill="#0D0D0D"/>
<circle cx="352.91" cy="321.828" r="2" transform="rotate(128.571 352.91 321.828)" fill="#0D0D0D"/>
<circle cx="341.28" cy="335.14" r="2" transform="rotate(133.714 341.28 335.14)" fill="#0D0D0D"/>
<circle cx="328.504" cy="347.355" r="2" transform="rotate(138.857 328.504 347.355)" fill="#0D0D0D"/>
<circle cx="314.683" cy="358.376" r="2" transform="rotate(144 314.683 358.376)" fill="#0D0D0D"/>
<circle cx="299.931" cy="368.116" r="2" transform="rotate(149.143 299.931 368.116)" fill="#0D0D0D"/>
<circle cx="284.364" cy="376.492" r="2" transform="rotate(154.286 284.364 376.492)" fill="#0D0D0D"/>
<circle cx="268.11" cy="383.438" r="2" transform="rotate(159.429 268.11 383.438)" fill="#0D0D0D"/>
<circle cx="251.3" cy="388.901" r="2" transform="rotate(164.571 251.3 388.901)" fill="#0D0D0D"/>
<circle cx="234.066" cy="392.835" r="2" transform="rotate(169.714 234.066 392.835)" fill="#0D0D0D"/>
<circle cx="216.548" cy="395.207" r="2" transform="rotate(174.857 216.548 395.207)" fill="#0D0D0D"/>
<circle cx="198.89" cy="396" r="2" transform="rotate(180 198.89 396)" fill="#0D0D0D"/>
<circle cx="181.23" cy="395.208" r="2" transform="rotate(-174.857 181.23 395.208)" fill="#0D0D0D"/>
<circle cx="163.713" cy="392.835" r="2" transform="rotate(-169.714 163.713 392.835)" fill="#0D0D0D"/>
<circle cx="146.48" cy="388.901" r="2" transform="rotate(-164.571 146.48 388.901)" fill="#0D0D0D"/>
<circle cx="129.669" cy="383.438" r="2" transform="rotate(-159.429 129.669 383.438)" fill="#0D0D0D"/>
<circle cx="113.414" cy="376.49" r="2" transform="rotate(-154.286 113.414 376.49)" fill="#0D0D0D"/>
<circle cx="97.848" cy="368.115" r="2" transform="rotate(-149.143 97.848 368.115)" fill="#0D0D0D"/>
<circle cx="83.0956" cy="358.376" r="2" transform="rotate(-144 83.0956 358.376)" fill="#0D0D0D"/>
<circle cx="69.2756" cy="347.356" r="2" transform="rotate(-138.857 69.2756 347.356)" fill="#0D0D0D"/>
<circle cx="56.499" cy="335.139" r="2" transform="rotate(-133.714 56.499 335.139)" fill="#0D0D0D"/>
<circle cx="44.8694" cy="321.828" r="2" transform="rotate(-128.571 44.8694 321.828)" fill="#0D0D0D"/>
<circle cx="34.4795" cy="307.526" r="2" transform="rotate(-123.429 34.4795 307.526)" fill="#0D0D0D"/>
<circle cx="25.4121" cy="292.352" r="2" transform="rotate(-118.286 25.4121 292.352)" fill="#0D0D0D"/>
<circle cx="17.7425" cy="276.426" r="2" transform="rotate(-113.143 17.7425 276.426)" fill="#0D0D0D"/>
<circle cx="11.5311" cy="259.876" r="2" transform="rotate(-108 11.5311 259.876)" fill="#0D0D0D"/>
<circle cx="6.82903" cy="242.838" r="2" transform="rotate(-102.857 6.82903 242.838)" fill="#0D0D0D"/>
<circle cx="3.67242" cy="225.445" r="2" transform="rotate(-97.7143 3.67242 225.445)" fill="#0D0D0D"/>
<circle cx="2.08794" cy="207.838" r="2" transform="rotate(-92.5714 2.08794 207.838)" fill="#0D0D0D"/>
<circle cx="2.08772" cy="190.162" r="2" transform="rotate(-87.4286 2.08772 190.162)" fill="#0D0D0D"/>
<circle cx="3.67224" cy="172.556" r="2" transform="rotate(-82.2857 3.67224 172.556)" fill="#0D0D0D"/>
<circle cx="6.82849" cy="155.163" r="2" transform="rotate(-77.1429 6.82849 155.163)" fill="#0D0D0D"/>
<circle cx="11.5319" cy="138.124" r="2" transform="rotate(-72 11.5319 138.124)" fill="#0D0D0D"/>
<circle cx="17.7423" cy="121.574" r="2" transform="rotate(-66.8571 17.7423 121.574)" fill="#0D0D0D"/>
<circle cx="25.4121" cy="105.647" r="2" transform="rotate(-61.7143 25.4121 105.647)" fill="#0D0D0D"/>
<circle cx="34.4789" cy="90.4737" r="2" transform="rotate(-56.5714 34.4789 90.4737)" fill="#0D0D0D"/>
<circle cx="44.8692" cy="76.1736" r="2" transform="rotate(-51.4286 44.8692 76.1736)" fill="#0D0D0D"/>
<circle cx="56.4986" cy="62.8604" r="2" transform="rotate(-46.2857 56.4986 62.8604)" fill="#0D0D0D"/>
<circle cx="69.2751" cy="50.6453" r="2" transform="rotate(-41.1429 69.2751 50.6453)" fill="#0D0D0D"/>
<circle cx="83.0963" cy="39.6241" r="2" transform="rotate(-36 83.0963 39.6241)" fill="#0D0D0D"/>
<circle cx="97.8482" cy="29.8864" r="2" transform="rotate(-30.8571 97.8482 29.8864)" fill="#0D0D0D"/>
<circle cx="113.415" cy="21.5103" r="2" transform="rotate(-25.7143 113.415 21.5103)" fill="#0D0D0D"/>
<circle cx="129.669" cy="14.5623" r="2" transform="rotate(-20.5714 129.669 14.5623)" fill="#0D0D0D"/>
<circle cx="146.48" cy="9.09898" r="2" transform="rotate(-15.4286 146.48 9.09898)" fill="#0D0D0D"/>
<circle cx="163.714" cy="5.16543" r="2" transform="rotate(-10.2857 163.714 5.16543)" fill="#0D0D0D"/>
<circle cx="181.231" cy="2.79314" r="2" transform="rotate(-5.14286 181.231 2.79314)" fill="#0D0D0D"/>
</svg>
